<?xml version="1.0" encoding="utf-8"?>
<!-- Generator: Adobe Illustrator 27.0.0, SVG Export Plug-In . SVG Version: 6.00 Build 0)  -->
<svg version="1.1" id="Layer_1" xmlns="http://www.w3.org/2000/svg" xmlns:xlink="http://www.w3.org/1999/xlink" x="0px" y="0px"
	 viewBox="0 0 208 208" style="enable-background:new 0 0 208 208;" xml:space="preserve">
<style type="text/css">
	.st0{fill:#FFFFFF;stroke:#4E7366;stroke-width:5;stroke-miterlimit:10;}
</style>
<path class="st0" d="M76.3,8c-11.8,0-21.8,8.5-23.7,20.1l-2,11.9H24C10.7,40,0,50.7,0,64v104c0,13.3,10.7,24,24,24h160
	c13.3,0,24-10.7,24-24V64c0-13.3-10.7-24-24-24h-26.6l-2-11.9C153.4,16.5,143.4,8,131.7,8H76.3z M104,64c26.5,0,48,21.5,48,48
	s-21.5,48-48,48s-48-21.5-48-48S77.5,64,104,64z M104,80c-17.7,0-32,14.3-32,32s14.3,32,32,32s32-14.3,32-32S121.7,80,104,80z"/>
</svg>
