<?xml version="1.0" encoding="utf-8"?>
<!-- Generator: Adobe Illustrator 27.0.0, SVG Export Plug-In . SVG Version: 6.00 Build 0)  -->
<svg version="1.1" id="Layer_1" xmlns="http://www.w3.org/2000/svg" xmlns:xlink="http://www.w3.org/1999/xlink" x="0px" y="0px"
	 viewBox="0 0 384 384" style="enable-background:new 0 0 384 384;" xml:space="preserve">
<style type="text/css">
	.st0{fill:#FFFFFF;stroke:#4F7366;stroke-width:5;stroke-miterlimit:10;}
	.st1{fill:#FFFFFF;stroke:#4E7366;stroke-width:5;stroke-miterlimit:10;enable-background:new    ;}
</style>
<path class="st0" d="M192,240L192,240c-35.3,0-64-28.7-64-64V96c0-35.3,28.7-64,64-64l0,0c35.3,0,64,28.7,64,64v80
	C256,211.3,227.3,240,192,240z"/>
<path class="st1" d="M304.9,208.3c-10.7-3.1-22.4,1.5-27.5,11.4C261.6,250.7,229.3,272,192,272s-69.6-21.3-85.4-52.4
	c-5.1-9.9-16.8-14.4-27.5-11.4l0,0c-14.6,4.2-21.8,20.7-14.8,34.2c19.2,36.9,54,64.2,95.7,73.7v3.9c0,17.7,14.3,32,32,32
	s32-14.3,32-32v-3.9c41.6-9.5,76.4-36.7,95.7-73.7C326.7,229,319.5,212.4,304.9,208.3z"/>
</svg>
