<?xml version="1.0" encoding="utf-8"?>
<!-- Generator: Adobe Illustrator 27.0.0, SVG Export Plug-In . SVG Version: 6.00 Build 0)  -->
<svg version="1.1" id="Layer_1" xmlns="http://www.w3.org/2000/svg" xmlns:xlink="http://www.w3.org/1999/xlink" x="0px" y="0px"
	 viewBox="0 0 96 96" style="enable-background:new 0 0 96 96;" xml:space="preserve">
<style type="text/css">
	.st0{fill:#FFFFFF;stroke:#4E7366;stroke-width:2;stroke-miterlimit:10;}
</style>
<path class="st0" d="M24,20c-2.2,0-4,1.8-4,4c0,1.1,0.4,2.1,1.2,2.9L42.3,48L21.2,69.2c-1.6,1.5-1.6,4.1-0.1,5.7
	c1.5,1.6,4.1,1.6,5.7,0.1c0,0,0.1-0.1,0.1-0.1L48,53.7l21.2,21.2c1.5,1.6,4.1,1.6,5.7,0.1s1.6-4.1,0.1-5.7c0,0-0.1-0.1-0.1-0.1
	L53.7,48l21.2-21.2c1.6-1.5,1.6-4.1,0.1-5.7c-0.8-0.8-1.9-1.2-3-1.2c-1,0-2,0.5-2.8,1.2L48,42.3L26.8,21.2C26.1,20.4,25,20,24,20z"
	/>
</svg>
