<?xml version="1.0" encoding="UTF-8"?>
<svg id="Layer_2" data-name="Layer 2" xmlns="http://www.w3.org/2000/svg" xmlns:xlink="http://www.w3.org/1999/xlink" viewBox="0 0 800 800">
  <defs>
    <style>
      .cls-1 {
        stroke: url(#linear-gradient-2);
      }

      .cls-1, .cls-2, .cls-3 {
        stroke-miterlimit: 10;
      }

      .cls-1, .cls-4, .cls-3 {
        fill: #5d867b;
      }

      .cls-2 {
        stroke: url(#linear-gradient-3);
      }

      .cls-2, .cls-5 {
        fill: #242e3b;
      }

      .cls-6 {
        fill: #4f7366;
      }

      .cls-7 {
        opacity: .83;
      }

      .cls-8 {
        fill: none;
        stroke: #4f7366;
        stroke-width: 7px;
      }

      .cls-3 {
        stroke: url(#linear-gradient);
      }
    </style>
    <linearGradient id="linear-gradient" x1="630.42" y1="92.11" x2="648.53" y2="92.11" gradientUnits="userSpaceOnUse">
      <stop offset="0" stop-color="#4c5f63"/>
      <stop offset="1" stop-color="#000"/>
    </linearGradient>
    <linearGradient id="linear-gradient-2" x1="656.08" y1="109.21" x2="725.5" y2="109.21" xlink:href="#linear-gradient"/>
    <linearGradient id="linear-gradient-3" x1="698.84" y1="237.5" x2="716.95" y2="237.5" xlink:href="#linear-gradient"/>
  </defs>
  <g id="shapes" class="cls-7">
    <circle id="main" class="cls-8" cx="400" cy="400" r="325"/>
    <g id="G">
      <circle class="cls-3" cx="639.47" cy="92.11" r="8.55"/>
      <circle class="cls-1" cx="690.79" cy="109.21" r="34.21"/>
      <circle class="cls-6" cx="630.92" cy="625.5" r="20"/>
      <circle class="cls-4" cx="117.76" cy="639.47" r="34.21"/>
    </g>
    <g id="B">
      <circle class="cls-5" cx="92.11" cy="194.74" r="17.11"/>
      <circle class="cls-5" cx="177.63" cy="682.24" r="17.11"/>
      <circle class="cls-2" cx="707.89" cy="237.5" r="8.55"/>
    </g>
    <g id="W">
      <circle class="cls-4" cx="109.21" cy="382.89" r="8.55"/>
    </g>
  </g>
  <g id="bot">
    <rect class="cls-4" x="317.5" y="418.81" width="41.25" height="41.25"/>
    <path class="cls-4" d="M523.75,360.8v-3.87c0-53.79-34.5-99.51-82.5-116.54v-27.84h-20.62v-50.89c6.21-5.62,10.11-13.75,10.11-22.78,0-16.97-13.76-30.73-30.73-30.73s-30.73,13.76-30.73,30.73c0,9.03,3.9,17.16,10.11,22.78v50.89h-20.62v27.84c-48,17.03-82.5,62.75-82.5,116.54v3.87c-23.87,8.61-41.25,31.34-41.25,58.01v41.25c0,26.67,17.38,49.4,41.25,58.01v106.99h41.25v-61.88h165v61.88h41.25v-106.99c23.87-8.61,41.25-31.34,41.25-58.01v-41.25c0-26.67-17.38-49.4-41.25-58.01Zm0,98.07c0,12.05-9.77,21.81-21.81,21.81h-203.88c-12.05,0-21.81-9.77-21.81-21.81v-38.88c0-12.05,9.77-21.81,21.81-21.81h203.88c12.05,0,21.81,9.77,21.81,21.81v38.88Z"/>
    <rect class="cls-5" x="441.25" y="418.81" width="41.25" height="41.25"/>
  </g>
</svg>