<?xml version="1.0" encoding="utf-8"?>
<!-- Generator: Adobe Illustrator 27.0.0, SVG Export Plug-In . SVG Version: 6.00 Build 0)  -->
<svg version="1.1" id="Layer_1" xmlns="http://www.w3.org/2000/svg" xmlns:xlink="http://www.w3.org/1999/xlink" x="0px" y="0px"
	 viewBox="0 0 480 480" style="enable-background:new 0 0 480 480;" xml:space="preserve">
<style type="text/css">
	.st0{fill:#FFFFFF;stroke:#4E7366;stroke-width:5;stroke-miterlimit:10;}
</style>
<path class="st0" d="M96,48c-17.7,0-32,14.3-32,32v96c0,13.6,8.6,25.7,21.4,30.2c3.4,1.2,7,1.8,10.6,1.8c0.1,0,0.2,0,0.3,0L288,240
	L96.3,272c-0.1,0-0.2,0-0.3,0c-3.6,0-7.2,0.6-10.6,1.8C72.6,278.3,64,290.4,64,304v96c0,17.7,14.3,32,32,32c5.6,0,11-1.5,15.9-4.2h0
	l326.3-173l0-0.1c5.9-2.5,9.7-8.3,9.7-14.7c0-6.4-3.8-12.2-9.8-14.8l-326.3-173C107.1,49.5,101.6,48,96,48z"/>
</svg>
