<?xml version="1.0" encoding="utf-8"?>
<!-- Generator: Adobe Illustrator 27.0.0, SVG Export Plug-In . SVG Version: 6.00 Build 0)  -->
<svg version="1.1" xmlns="http://www.w3.org/2000/svg" xmlns:xlink="http://www.w3.org/1999/xlink" x="0px" y="0px"
	 viewBox="0 0 500 500" style="enable-background:new 0 0 500 500;" xml:space="preserve">
<style type="text/css">
	.st0{fill:#4E7366;}
</style>
<g id="Layer_1">
	<path class="st0" d="M198.8,33.8c-36.8,0.7-63.7,12-80,33.4c-19.3,25.5-22.9,64.3-10.6,115c-4.5,5.5-7.9,13.9-6.6,25
		c2.7,22,11.2,31.1,18.4,34.7c3.4,17.3,13,36.8,22.2,45.9v4.7c0.1,10.1,0,18.9-0.9,30.3c-6.1,14.1-26.5,22.3-50,31.6
		c-39.1,15.4-87.6,34.4-91.2,95L-0.6,460h401.2l-0.6-10.6c-3.6-60.7-52-79.6-90.9-95c-23.4-9.3-43.9-17.5-50-31.6
		c-1-11.3-0.7-20.2-0.6-30.3v-4.7c4.6-4.7,9.2-12.4,13.1-20.9c3.8,3.8,7.6,7.6,11.9,10.9c0.6,0.8,1.4,1.6,2.2,2.2
		c0.5,0.4,1,0.9,1.6,1.2c0.3,0.2,0.6,0.4,0.9,0.6c-0.2,1.6,0.3,1.6-0.6,5c-1.8,6.6-5.4,16-12.8,26.6c-2.1,3-2.3,7-0.6,10.2
		c1.7,3.3,5,5.4,8.7,5.4c33.5,0.2,52-19.2,57.5-25.3c9.6,2,19.4,3.4,29.7,3.4c70.9,0,130-50,130-113.4c0-62-56.6-110.5-125.3-112.8
		c-0.2-0.1-0.4-0.2-0.6-0.3c-0.1,0-0.2,0-0.3,0c-0.3-0.1-0.6-0.2-0.9-0.3c-0.7-0.2-1.4-0.3-2.2-0.3c-0.2,0-0.4,0-0.6,0
		c-15.2,0-29.5,2.7-43.1,6.9c-1,0.3-2.1,0.3-3.1,0.6c-0.7,0.2-1.2,0.7-1.9,0.9c-1.7,0.6-3.6,0.9-5.3,1.6c-1.7,0.6-3.2,1.7-4.4,3.1
		c-4.9,2.1-9.5,4.5-14.1,7.2c-1.8-7.8-4.6-15.5-8.8-22.2c-8.6-13.8-21.6-22.5-38.8-25.9C241.2,40.3,223,33.8,198.8,33.8z M370,100
		c0.3,0,0.6,0,0.9,0c61.1,0.4,109.1,43,109.1,93.8c0,51-48.4,93.4-110,93.4c-10.5,0-20.7-1.1-30.3-3.4c-3.8-1-7.9,0.4-10.3,3.4
		c0,0-11,12.9-29.4,18.8c1.9-4.5,5.6-10.2,6.6-13.8c2.3-8.6,2.5-15,2.5-15c0-3.4-1.8-6.6-4.7-8.4c-1.4-0.9-3-1.8-4.4-2.8
		c-0.3-0.2-0.6-0.4-0.9-0.6c0-0.1,0-0.2,0-0.3c-7.8-5.6-14.3-12.3-20-19.4c0.3-1.2,0.7-2.5,0.9-3.8c7.2-3.6,15.8-12.7,18.4-34.7
		c1.3-10.9-1.9-19.2-6.2-24.7c3.6-12.3,9.6-36.6,8.8-61.2c7.7-5.3,16.4-9.7,25.6-13.1C339.9,103.2,354.5,100,370,100z"/>
</g>
<g id="Layer_2">
	<path class="st0" d="M298.2,120.1c0,0,62.2-87.1,153.8,5.2s18.8,129-23.1,152.8s-80,10.6-93.8,8.8s14.6,10.8-19,23
		c-33.6,12.2-44.8,34.7-31.3,5.7c13.4-29,1.5-47.9,1.5-47.9l-21.6-30.5l-14.9-92.9L298.2,120.1z"/>
</g>
</svg>
